<svg width="320" height="96" viewBox="0 0 320 96" fill="none" xmlns="http://www.w3.org/2000/svg">
<path d="M133.183 33.0289C136.58 36.4497 138.274 41.4007 138.274 47.875V73.5888C138.274 74.3029 137.696 74.8809 136.981 74.8809H127.813C127.098 74.8809 126.52 74.3029 126.52 73.5888V49.446C126.52 45.9912 125.642 43.2029 123.879 41.0743C122.116 38.9456 119.543 37.8847 116.147 37.8847C112.75 37.8847 110.143 38.9456 108.326 41.0743C106.502 43.2029 105.597 45.9912 105.597 49.446V73.5888C105.597 74.3029 105.018 74.8809 104.304 74.8809H95.1352C94.4206 74.8809 93.842 74.3029 93.842 73.5888V30.3018C93.842 29.5877 94.4206 29.0097 95.1352 29.0097H104.304C105.018 29.0097 105.597 29.5877 105.597 30.3018V34.3755C107.203 32.2197 109.347 30.6011 112.029 29.5197C114.711 28.4452 117.413 27.9012 120.128 27.9012C125.437 27.9012 129.787 29.6082 133.183 33.0289ZM174.975 50.4661C172.538 49.4188 169.713 48.4939 166.507 47.6914C165.337 47.3854 163.975 46.9977 162.437 46.5353C160.892 46.0728 159.565 45.454 158.455 44.6855C157.346 43.917 156.788 42.9105 156.788 41.6795C156.788 39.9521 157.469 38.7824 158.823 38.1635C160.178 37.5447 161.723 37.2386 163.451 37.2386C165.609 37.2386 167.413 37.7487 168.869 38.762C170.006 39.5645 170.755 40.6526 171.115 42.0468C171.299 42.7609 171.973 43.2505 172.715 43.2505H181.604C182.101 43.2505 182.503 42.8221 182.455 42.3324C181.979 37.7283 180.093 34.2123 176.792 31.7844C173.273 29.1933 168.951 27.9012 163.833 27.9012C160.559 27.9012 157.523 28.4384 154.712 29.5197C151.901 30.6011 149.648 32.1856 147.953 34.2803C146.252 36.3749 145.408 38.9048 145.408 41.8632C145.408 44.8827 146.149 47.3038 147.626 49.1264C149.11 50.9422 151.111 52.3635 153.643 53.3837C156.175 54.4038 158.98 55.2811 162.07 56.0224C163.302 56.3352 164.663 56.7024 166.14 57.1309C167.624 57.5593 168.917 58.151 170.026 58.8855C171.136 59.6268 171.694 60.6401 171.694 61.939C171.694 63.6052 170.938 64.8226 169.427 65.5911C167.916 66.3596 166.296 66.7472 164.568 66.7472C162.533 66.7472 160.695 66.1895 159.061 65.081C157.754 64.1901 156.87 63.0272 156.407 61.5922C156.189 60.9053 155.515 60.4565 154.787 60.4565H145.224C144.706 60.4565 144.319 60.9121 144.38 61.4222C144.706 64.1697 145.748 66.5908 147.49 68.6922C149.437 71.0385 151.914 72.8407 154.943 74.1056C157.965 75.3706 161.205 76.0031 164.663 76.0031C167.93 76.0031 170.959 75.4658 173.736 74.3845C176.513 73.3099 178.752 71.7186 180.447 69.6239C182.142 67.5293 182.993 64.9722 182.993 61.9458C182.931 58.9263 182.189 56.5188 180.774 54.7302C179.344 52.9348 177.411 51.5135 174.975 50.4661ZM221.585 54.4446C221.585 57.9606 220.721 60.7625 218.992 62.8639C217.263 64.9586 214.643 66.0059 211.124 66.0059C207.727 66.0059 205.154 64.9314 203.392 62.7687C201.635 60.6129 200.751 57.8382 200.751 54.4446V30.3018C200.751 29.5877 200.172 29.0097 199.457 29.0097H190.289C189.574 29.0097 188.996 29.5877 188.996 30.3018V56.1992C188.996 60.0212 189.738 63.4284 191.215 66.4208C192.699 69.4131 194.822 71.7526 197.599 73.4528C200.376 75.1462 203.739 75.9962 207.686 75.9962C210.402 75.9962 213.009 75.4386 215.507 74.3301C218.005 73.2215 220.026 71.6165 221.572 69.5219V73.5956C221.572 74.3097 222.15 74.8877 222.865 74.8877H232.128C232.843 74.8877 233.422 74.3097 233.422 73.5956V30.3018C233.422 29.5877 232.843 29.0097 232.128 29.0097H222.865C222.15 29.0097 221.572 29.5877 221.572 30.3018V54.4446H221.585ZM253.521 35.8513V30.3018C253.521 29.5877 252.942 29.0097 252.228 29.0097H243.059C242.345 29.0097 241.766 29.5877 241.766 30.3018V73.5956C241.766 74.3097 242.345 74.8877 243.059 74.8877H252.228C252.942 74.8877 253.521 74.3097 253.521 73.5956V51.9419C253.521 47.7526 254.447 44.7603 256.298 42.9717C258.149 41.1831 260.954 40.2922 264.724 40.2922H267.018C267.488 40.2922 267.876 39.9113 267.876 39.4353V28.7717C267.876 28.2888 267.481 27.8944 266.998 27.9148C264.316 28.0372 261.866 28.7036 259.64 29.9278C257.162 31.2879 255.12 33.2602 253.521 35.8513ZM319.053 65.8087V74.0172C319.053 74.4933 318.658 74.8809 318.182 74.8741C315.664 74.8265 313.533 74.5477 311.784 74.0512C309.837 73.4936 308.251 72.6775 307.019 71.6029C305.781 70.5284 304.732 69.1547 303.875 67.4885C302.452 69.8959 300.247 71.9158 297.259 73.548C294.264 75.1802 291.011 75.9962 287.492 75.9962C284.776 75.9962 282.244 75.4386 279.903 74.3301C277.554 73.2215 275.662 71.637 274.212 69.5695C272.763 67.5021 272.034 65.0538 272.034 62.2179C272.034 58.8243 272.865 56.0496 274.532 53.8937C276.2 51.7379 278.494 50.1329 281.427 49.0856C284.361 48.0383 287.642 47.5146 291.283 47.5146H302.207C302.207 45.42 301.881 43.6586 301.234 42.244C300.587 40.8294 299.628 39.7345 298.362 38.9592C297.096 38.1907 295.537 37.8031 293.686 37.8031C291.528 37.8031 289.595 38.2791 287.9 39.2381C286.199 40.197 285.171 41.7815 284.796 43.9986H273.906C273.382 43.9986 272.987 43.5293 273.062 43.0125C273.491 40.1017 274.594 37.5583 276.37 35.3956C278.344 32.9881 280.876 31.1383 283.959 29.8462C287.043 28.554 290.344 27.9012 293.863 27.9012C298.185 27.9012 301.84 28.7036 304.835 30.3086C307.829 31.9136 310.123 34.1783 311.729 37.1094C313.336 40.0405 314.139 43.5089 314.139 47.5146V61.4834C314.262 62.8435 314.758 63.7684 315.623 64.2581C316.317 64.6594 317.195 64.8974 318.257 64.9722C318.713 64.9926 319.053 65.3598 319.053 65.8087ZM302.207 55.0907H292.025C290.664 55.0907 289.37 55.2879 288.138 55.6891C286.906 56.0904 285.92 56.7092 285.178 57.5389C284.436 58.3686 284.068 59.4976 284.068 60.9121C284.068 62.8231 284.728 64.2309 286.056 65.1218C287.383 66.0127 289.003 66.4616 290.915 66.4616C292.951 66.4616 294.816 65.9991 296.517 65.0742C298.212 64.1493 299.587 62.8571 300.635 61.191C301.683 59.5248 302.207 57.6138 302.207 55.4579V55.0907ZM75.24 22.3857H84.5036C85.2183 22.3857 85.7968 21.8077 85.7968 21.0936V12.6946C85.7968 12.1642 85.2251 11.8309 84.7622 12.0962L74.784 17.8224C74.2667 18.1216 73.9468 18.6657 73.9468 19.2642V21.0936C73.9468 21.8077 74.5254 22.3857 75.24 22.3857ZM75.24 74.8809H84.5036C85.2183 74.8809 85.7968 74.3029 85.7968 73.5888V30.4718C85.7968 29.7578 85.2183 29.1797 84.5036 29.1797H75.24C74.5254 29.1797 73.9468 29.7578 73.9468 30.4718V73.5888C73.9468 74.3029 74.5254 74.8809 75.24 74.8809Z" fill="#013CFF"/>
<path d="M14.7191 48.6678C11.4969 47.7812 8.95903 45.2522 8.07506 42.0469C7.98381 41.7116 7.48765 41.7116 7.3964 42.0469C6.50673 45.2579 3.96887 47.7869 0.752359 48.6678C0.41588 48.7587 0.41588 49.2531 0.752359 49.3441C3.97458 50.2306 6.51243 52.7596 7.3964 55.9649C7.48765 56.3002 7.98381 56.3002 8.07506 55.9649C8.96474 52.7539 11.5026 50.2249 14.7191 49.3441C15.0556 49.2531 15.0556 48.7587 14.7191 48.6678Z" fill="#069332"/>
<path d="M48.8518 43.2688H48.8233C46.736 43.1324 44.7114 42.7403 42.7952 42.1208C42.1564 41.9162 41.5291 41.6832 40.9132 41.4331C40.2972 41.1774 39.6927 40.8989 39.1053 40.6034C37.6282 39.8532 36.2367 38.961 34.9478 37.9437C32.37 35.9148 30.2029 33.3859 28.5889 30.5102C27.9444 29.3622 27.3856 28.1517 26.9293 26.9014C26.7012 26.2763 26.4959 25.6341 26.3134 24.9862V24.9749C26.1537 24.4009 25.6347 24.0031 25.0359 24.0031H13.4359H9.52363C8.53131 24.0031 7.72718 24.8385 7.80132 25.8216C7.87546 26.8503 8.01233 27.8562 8.20623 28.8451C8.41154 29.8908 8.68529 30.9137 9.01606 31.9026C9.51223 33.3915 10.151 34.818 10.9038 36.1706C11.1889 36.6764 11.4912 37.1708 11.8048 37.6596C13.7097 40.5636 16.2019 43.0472 19.1161 44.9453C19.6009 45.2636 20.0971 45.5591 20.6103 45.8432C20.9867 46.0535 21.3688 46.2524 21.7567 46.44C22.1045 46.6105 22.498 46.5764 22.8459 46.4172C23.382 46.1672 24.0094 46.0762 24.6709 46.224C25.7488 46.4627 26.6156 47.3379 26.8324 48.412C27.1973 50.242 25.8058 51.8446 24.0322 51.8446C23.6101 51.8446 23.2109 51.748 22.8516 51.5832C22.5037 51.4241 22.1045 51.39 21.7624 51.5604C21.3688 51.748 20.981 51.9469 20.6046 52.1572C19.0819 53.004 17.6505 54.0099 16.3445 55.1408C15.4719 55.8967 14.6564 56.715 13.8922 57.5845C13.128 58.4541 12.4322 59.3747 11.7991 60.3409C11.4798 60.8239 11.1832 61.3183 10.8981 61.8298C10.1396 63.1824 9.50652 64.6089 9.01036 66.0978C8.36592 68.0301 7.9496 70.0647 7.79561 72.1788C7.72147 73.1676 8.5256 74.0031 9.52363 74.0031H13.4359H25.0302C25.629 74.0031 26.1537 73.6052 26.3077 73.0312V73.0199C26.4845 72.372 26.6898 71.7298 26.9236 71.1047C27.4996 69.5361 28.2239 68.0472 29.0851 66.6434C30.4652 64.3986 32.1875 62.3925 34.1836 60.6875C34.4345 60.4773 34.6854 60.267 34.9421 60.0624C35.7177 59.4543 36.5275 58.886 37.3659 58.3688C38.2099 57.8517 39.0825 57.3856 39.9893 56.9651C40.5938 56.6866 41.2097 56.4309 41.8371 56.2036C44.0327 55.3966 46.3767 54.8908 48.8176 54.7316C49.7586 54.6975 50.5 53.9303 50.5 52.9983V45.0362C50.5057 44.1099 49.7814 43.337 48.8518 43.2688Z" fill="#013DFF"/>
</svg>
